<svg xmlns="http://www.w3.org/2000/svg" viewBox="0 0 64 64" width="64" height="64">
  <defs>
    <linearGradient id="body" x1="0" y1="0" x2="1" y2="0.4">
      <stop offset="0"    stop-color="#B0273D"/>
      <stop offset="0.4"  stop-color="#86142A"/>
      <stop offset="1"    stop-color="#560A1A"/>
    </linearGradient>
    <linearGradient id="bodyHi" x1="0" y1="0" x2="1" y2="0">
      <stop offset="0"   stop-color="#E27486" stop-opacity="0.85"/>
      <stop offset="1"   stop-color="#E27486" stop-opacity="0"/>
    </linearGradient>
    <linearGradient id="gold" x1="0" y1="0" x2="1" y2="0.6">
      <stop offset="0"    stop-color="#FBE9A6"/>
      <stop offset="0.45" stop-color="#E3B23C"/>
      <stop offset="1"    stop-color="#9A6E12"/>
    </linearGradient>
    <linearGradient id="goldB" x1="0" y1="0" x2="0" y2="1">
      <stop offset="0"   stop-color="#FFF3C4"/>
      <stop offset="1"   stop-color="#C68A1C"/>
    </linearGradient>
  </defs>
  <g transform="rotate(-42 32 32)">
    <rect x="25.2" y="8.6" width="13.6" height="48" rx="6"
          fill="#000000" opacity="0.10" transform="translate(1.4,1.8)"/>
    <rect x="25" y="8" width="14" height="19" rx="5.5" fill="url(#body)"/>
    <rect x="26.4" y="9.5" width="3.4" height="16" rx="1.7" fill="url(#bodyHi)"/>
    <rect x="27.5" y="6.4" width="9" height="3.2" rx="1.6" fill="#1A1012"/>
    <rect x="25" y="11.4" width="14" height="2.4" fill="url(#goldB)"/>
    <rect x="30.9" y="13.6" width="2.2" height="10.5" rx="1.1" fill="url(#gold)"/>
    <circle cx="32" cy="24" r="1.7" fill="url(#gold)"/>
    <rect x="24.4" y="27" width="15.2" height="6" rx="1.6" fill="url(#gold)"/>
    <rect x="24.4" y="27.6" width="15.2" height="1" fill="#FFF3C4" opacity="0.75"/>
    <rect x="24.4" y="31.6" width="15.2" height="1" fill="#8A5E10" opacity="0.6"/>
    <path d="M25 33 H39 L37.4 48 Q35.5 50 32 50 Q28.5 50 26.6 48 Z" fill="url(#body)"/>
    <rect x="26.6" y="33" width="3.4" height="15" rx="1.5" fill="url(#bodyHi)"/>
    <rect x="27.2" y="49.4" width="9.6" height="2.4" rx="1" fill="url(#gold)"/>
    <path d="M28 51.6 H36 L34 57 H30 Z" fill="#171012"/>
    <path d="M29 51.6 H30.6 L29.8 57 H29.4 Z" fill="#3C2B2F" opacity="0.7"/>
    <path d="M29.6 56.6 H34.4 L33.1 59.6 Q32 62.6 32 62.6 Q32 62.6 30.9 59.6 Z"
          fill="url(#gold)"/>
    <path d="M29.6 56.6 H34.4 L33.1 59.6 Q32 62.6 32 62.6 Q32 62.6 30.9 59.6 Z"
          fill="none" stroke="#8A5E10" stroke-width="0.4"/>
    <line x1="32" y1="57.4" x2="32" y2="61.6" stroke="#7A5410" stroke-width="0.85"/>
    <circle cx="32" cy="58.2" r="1.05" fill="#7A5410"/>
  </g>
</svg>